<?xml version="1.0"?>
<svg width="512" height="512" xmlns="http://www.w3.org/2000/svg" xmlns:svg="http://www.w3.org/2000/svg">
 <g class="layer">
  <title>Layer 1</title>
  <path d="m505.183,239.544l-116.364,-116.365c-6.654,-6.658 -16.668,-8.645 -25.363,-5.046c-8.696,3.603 -14.367,12.089 -14.367,21.501l0,93.092l-325.816,0c-12.853,0.001 -23.273,10.421 -23.273,23.274s10.42,23.273 23.273,23.273l325.818,0l0,93.091c0,9.413 5.669,17.9 14.367,21.501c2.878,1.193 5.904,1.773 8.901,1.773c6.056,0 12.009,-2.365 16.46,-6.819l116.364,-116.364c9.09,-9.087 9.09,-23.822 0,-32.911z" fill="#5286FA" id="svg_1" transform="rotate(45 256 256)"/>
  <g id="svg_2"/>
  <g id="svg_3"/>
  <g id="svg_4"/>
  <g id="svg_5"/>
  <g id="svg_6"/>
  <g id="svg_7"/>
  <g id="svg_8"/>
  <g id="svg_9"/>
  <g id="svg_10"/>
  <g id="svg_11"/>
  <g id="svg_12"/>
  <g id="svg_13"/>
  <g id="svg_14"/>
  <g id="svg_15"/>
  <g id="svg_16"/>
 </g>
</svg>